<svg width="79" height="79" viewBox="0 0 79 79" fill="none" xmlns="http://www.w3.org/2000/svg">
<path d="M77 45.0714V33.9286L67.0108 30.8834C66.4955 29.2378 65.8188 27.6613 65.0345 26.1541L69.956 16.9185L62.0815 9.04399L52.8459 13.9655C51.3387 13.1735 49.7622 12.5045 48.1166 11.9892L45.0714 2H33.9286L30.8834 11.9892C29.2378 12.5045 27.6613 13.1812 26.1541 13.9655L16.9185 9.04399L9.04399 16.9185L13.9655 26.1541C13.1735 27.6613 12.5045 29.2378 11.9892 30.8834L2 33.9286V45.0637L11.9892 48.1089C12.5045 49.7545 13.1812 51.331 13.9655 52.8382L9.04399 62.0738L16.9185 69.956L26.1541 65.0345C27.6613 65.8265 29.2378 66.4955 30.8834 67.0108L33.9286 77H45.0637L48.1089 67.0108C49.7545 66.4955 51.331 65.8188 52.8382 65.0345L62.0738 69.956L69.9483 62.0815L65.0268 52.8459C65.8188 51.3387 66.4879 49.7622 67.0031 48.1166L77 45.0714Z" stroke="#999999" stroke-width="3.5" stroke-miterlimit="10" stroke-linejoin="round"/>
<path d="M39.4964 49.2781C44.8987 49.2781 49.2781 44.8987 49.2781 39.4964C49.2781 34.0942 44.8987 29.7148 39.4964 29.7148C34.0942 29.7148 29.7148 34.0942 29.7148 39.4964C29.7148 44.8987 34.0942 49.2781 39.4964 49.2781Z" fill="#999999"/>
</svg>
