<svg width="90" height="90" viewBox="0 0 90 90" fill="none" xmlns="http://www.w3.org/2000/svg">
<path d="M6.81138 28.0612H0V0H28.0612V6.81138H6.81138V28.0612Z" fill="#fff"/>
<path d="M61.9388 6.81137L61.9388 -1.27566e-06L90 0L90 28.0612L83.1886 28.0612L83.1886 6.81138L61.9388 6.81137Z" fill="#fff"/>
<path d="M83.1886 61.9388L90 61.9388L90 90L61.9388 90L61.9388 83.1886L83.1886 83.1886L83.1886 61.9388Z" fill="#fff"/>
<path d="M28.0612 83.1886L28.0612 90L0 90L3.67979e-06 61.9388L6.81138 61.9388L6.81138 83.1886L28.0612 83.1886Z" fill="#fff"/>
<path d="M74.2476 40.2769H49.8164V15.8457H74.2476V40.2769ZM55.5016 34.5917H68.5624V21.5309H55.5016V34.5917Z" fill="#fff"/>
<path d="M40.4625 74.0621H16.0312V49.6309H40.4625V74.0621ZM21.7165 68.3769H34.7773V55.3161H21.7165V68.3769Z" fill="#fff"/>
<path d="M66.6719 57.5H57.3906V66.5637H66.6719V57.5Z" fill="#fff"/>
<rect x="15.7656" y="15.7656" width="24.7756" height="24.7756" fill="#fff"/>
</svg>
